<svg width="145" height="188" viewBox="0 0 145 188" fill="none" xmlns="http://www.w3.org/2000/svg">
<g opacity="0.5" clip-path="url(#clip0_11510_8236)">
<path d="M104.576 96.4326L74.894 126.15L83.1773 134.443L112.859 104.726L104.576 96.4326Z" fill="white"/>
<path d="M53.5168 126.148L85.5918 158.296L72.4829 171.42L59.374 158.296L70.0772 147.58L61.7796 139.272L42.8135 158.296L72.4829 188L102.187 158.296L61.7796 117.84L53.5168 126.148Z" fill="white"/>
<path d="M104.732 75.1511L96.4688 83.4585L128.404 115.432L115.295 128.556L104.592 117.84L96.2944 126.148L115.295 145.171L145 115.432L104.732 75.1511Z" fill="white"/>
<path d="M48.6703 104.716L16.5605 72.5681L29.7043 59.4437L40.2332 70.02L48.5309 61.7126L29.7043 42.8637L0 72.5681L40.4075 113.023L48.6703 104.716Z" fill="white"/>
<path d="M61.779 53.5587L31.9492 83.4236L40.2325 91.7167L70.0622 61.8518L61.779 53.5587Z" fill="white"/>
<path d="M91.6582 62.0267L59.374 29.7393L72.4829 16.58L85.5918 29.7393L74.8188 40.525L83.1164 48.7976L102.187 29.7393L72.4829 -2.47955e-05L42.8135 29.7393L83.3605 70.3342L91.6582 62.0267Z" fill="white"/>
<path d="M61.7793 96.4084L29.7043 128.556L16.5605 115.432L27.2638 104.716L19.001 96.4084L0 115.432L29.7043 145.171L70.0769 104.716L61.7793 96.4084Z" fill="white"/>
<path d="M83.4996 91.2774L115.261 59.4786L128.265 72.7426L118.224 82.7605L126.522 91.0679L144.756 72.8125L115.331 42.8288L75.2368 82.9699L83.4996 91.2774Z" fill="white"/>
<path d="M61.9317 75.1445L53.6484 83.4376L83.1823 113.006L91.4656 104.713L61.9317 75.1445Z" fill="white"/>
</g>
<defs>
<clipPath id="clip0_11510_8236">
<rect width="145" height="188" fill="white"/>
</clipPath>
</defs>
</svg>
