<svg width="357" height="464" viewBox="0 0 357 464" fill="none" xmlns="http://www.w3.org/2000/svg">
<g opacity="0.8">
<path d="M99.5268 237.768L172.605 311.039L152.211 331.486L79.1327 258.215L99.5268 237.768Z" fill="#C88A5F"/>
<path d="M225.239 311.034L146.268 390.299L178.543 422.659L210.818 390.299L184.466 363.877L204.895 343.394L251.591 390.299L178.543 463.539L105.409 390.299L204.895 290.551L225.239 311.034Z" fill="#C88A5F"/>
<path d="M99.1432 185.295L119.487 205.779L40.8593 284.613L73.1344 316.973L99.4866 290.551L119.916 311.034L73.1344 357.939L0.000424366 284.613L99.1432 185.295Z" fill="#C88A5F"/>
<path d="M204.896 132.056L278.339 205.692L257.945 226.14L184.502 152.504L204.896 132.056Z" fill="#C88A5F"/>
<path d="M131.332 152.935L210.818 73.3263L178.543 40.8803L146.268 73.3263L172.792 99.92L152.362 120.317L105.409 73.3263L178.543 0L251.591 73.3263L151.761 173.418L131.332 152.935Z" fill="#C88A5F"/>
<path d="M204.895 237.708L283.866 316.973L316.227 284.613L289.875 258.191L310.218 237.708L357 284.613L283.866 357.939L184.466 258.191L204.895 237.708Z" fill="#C88A5F"/>
<path d="M151.418 225.057L73.2198 146.653L41.2022 179.357L65.9235 204.057L45.4941 224.54L0.600869 179.529L73.0481 105.6L171.762 204.573L151.418 225.057Z" fill="#C88A5F"/>
<path d="M204.519 185.279L224.913 205.727L152.199 278.633L131.805 258.185L204.519 185.279Z" fill="#C88A5F"/>
</g>
</svg>
