<svg preserveAspectRatio="none" width="100%" height="100%" overflow="visible" style="display: block;" viewBox="0 0 108 63" fill="none" xmlns="http://www.w3.org/2000/svg">
<g id="Frame" clip-path="url(#clip0_0_371)">
<path id="Vector" d="M32.3683 33.303L23.1802 42.3686L25.7435 44.8977L34.9316 35.8321L32.3683 33.303Z" fill="var(--fill-0, white)"/>
<path id="Vector_2" d="M16.5602 42.3755L26.4939 52.1768L22.4333 56.1832L18.3727 52.1768L21.68 48.9019L19.1142 46.3819L13.2411 52.1768L22.4333 61.2348L31.6138 52.1768L19.1142 39.8439L16.5602 42.3755Z" fill="var(--fill-0, white)"/>
<path id="Vector_3" d="M32.4141 26.8142L29.8483 29.3458L39.735 39.1006L35.6744 43.1071L32.367 39.8439L29.8012 42.3755L35.6744 48.1703L44.8666 39.1006L32.4141 26.8142Z" fill="var(--fill-0, white)"/>
<path id="Vector_4" d="M15.0654 35.8373L5.13165 26.036L9.18047 22.0295L12.4525 25.2579L15.0183 22.7263L9.18047 16.9779L0 26.036L12.4996 38.3689L15.0654 35.8373Z" fill="var(--fill-0, white)"/>
<path id="Vector_5" d="M19.1204 20.2434L9.89073 29.35L12.4541 31.8791L21.6838 22.7725L19.1204 20.2434Z" fill="var(--fill-0, white)"/>
<path id="Vector_6" d="M28.3535 22.8194L18.3727 12.9716L22.4333 8.96516L26.4939 12.9716L23.1513 16.2581L25.7171 18.7897L31.6138 12.9716L22.4333 3.90194L13.2411 12.9716L25.7877 25.351L28.3535 22.8194Z" fill="var(--fill-0, white)"/>
<path id="Vector_7" d="M19.1142 33.3058L9.18047 43.1071L5.13165 39.1006L8.43897 35.8374L5.87315 33.3058L0 39.1006L9.18047 48.1703L21.68 35.8374L19.1142 33.3058Z" fill="var(--fill-0, white)"/>
<path id="Vector_8" d="M25.8348 31.7381L35.6626 22.0413L39.6879 26.0826L36.5806 29.1484L39.1465 31.68L44.7842 26.1058L35.6861 16.9664L23.2807 29.2065L25.8348 31.7381Z" fill="var(--fill-0, white)"/>
<path id="Vector_9" d="M19.1695 26.8211L16.6062 29.3502L25.7443 38.3665L28.3077 35.8374L19.1695 26.8211Z" fill="var(--fill-0, white)"/>
<path id="Vector_10" d="M56.8248 11.7639V9.72001C56.8248 9.52598 56.7466 9.33989 56.6076 9.20269C56.4685 9.06548 56.2799 8.9884 56.0833 8.9884H51.9285C52.2907 9.00051 52.6337 9.1518 52.8844 9.40999C53.1351 9.66817 53.2735 10.0128 53.2703 10.3703V22.2852C53.2703 22.4792 53.3484 22.6653 53.4874 22.8025C53.6265 22.9397 53.8151 23.0168 54.0118 23.0168H56.0833C56.2799 23.0168 56.4685 22.9397 56.6076 22.8025C56.7466 22.6653 56.8248 22.4792 56.8248 22.2852V20.2413C56.8248 20.0473 56.7466 19.8612 56.6076 19.724C56.4685 19.5868 56.2799 19.5097 56.0833 19.5097H55.4006C55.3022 19.5112 55.2046 19.4934 55.1132 19.4574C55.0219 19.4213 54.9388 19.3676 54.8687 19.2996C54.7986 19.2315 54.7429 19.1503 54.7049 19.0608C54.6669 18.9712 54.6473 18.8751 54.6473 18.7781V16.7342C54.6473 16.6371 54.6669 16.5411 54.7049 16.4515C54.7429 16.362 54.7986 16.2808 54.8687 16.2127C54.9388 16.1446 55.0219 16.091 55.1132 16.0549C55.2046 16.0188 55.3022 16.0011 55.4006 16.0026H59.6377C59.8344 16.0026 60.023 16.0797 60.1621 16.2169C60.3011 16.3541 60.3792 16.5402 60.3792 16.7342V25.1419C60.3796 25.4986 60.2401 25.8416 59.99 26.0992C59.74 26.3567 59.3987 26.5089 59.0375 26.5239H50.4573C50.2606 26.5239 50.072 26.4468 49.933 26.3096C49.7939 26.1724 49.7158 25.9863 49.7158 25.7923V6.21292C49.7158 6.01888 49.7939 5.83279 49.933 5.69559C50.072 5.55839 50.2606 5.4813 50.4573 5.4813H59.0375C59.3997 5.49341 59.7427 5.6447 59.9934 5.90289C60.244 6.16108 60.3825 6.50571 60.3792 6.86324V11.7639C60.3792 11.9579 60.3011 12.144 60.1621 12.2812C60.023 12.4184 59.8344 12.4955 59.6377 12.4955H57.5663C57.3696 12.4955 57.181 12.4184 57.0419 12.2812C56.9029 12.144 56.8248 11.9579 56.8248 11.7639V11.7639Z" fill="var(--fill-0, white)"/>
<path id="Vector_11" d="M64.9107 26.3497C64.3966 26.2304 63.9267 25.9713 63.5543 25.6018C63.1819 25.2324 62.9219 24.7673 62.8039 24.2593C62.7572 24.0417 62.7335 23.8199 62.7333 23.5974V8.36128C62.7263 7.63854 63.003 6.94116 63.5054 6.41515C64.0078 5.88914 64.697 5.5753 65.4286 5.53935C67.1532 5.43482 68.8827 5.43482 70.6073 5.53935C71.339 5.57803 72.0278 5.89233 72.5315 6.41741C73.0352 6.94249 73.3154 7.6383 73.3144 8.36128V23.5974C73.3156 24.3185 73.037 25.0127 72.5358 25.5375C72.0345 26.0623 71.3487 26.3778 70.6191 26.4193C68.8945 26.5239 67.165 26.5239 65.4404 26.4193C65.2623 26.4089 65.0853 26.3856 64.9107 26.3497V26.3497ZM71.5607 3.90193C71.7255 3.95999 71.749 4.29677 71.5607 4.42451L71.4312 4.52903C71.29 4.64516 71.031 4.58709 70.8898 4.58709L68.0297 4.45935L65.2285 4.64516C65.0755 4.64516 64.8283 4.64516 64.6753 4.58709L64.5576 4.48257C64.3929 4.35483 64.4282 4.01806 64.5576 3.95999L67.7473 2.93806C67.9467 2.87794 68.1598 2.87794 68.3593 2.93806L71.5607 3.90193ZM68.9596 22.8193C69.1207 22.757 69.2673 22.6631 69.3907 22.5434C69.5141 22.4236 69.6117 22.2805 69.6775 22.1226C69.7513 21.9496 69.7912 21.7644 69.7952 21.5768V10.3819C69.7912 10.1943 69.7513 10.0091 69.6775 9.83612C69.6117 9.67821 69.5141 9.53507 69.3907 9.41532C69.2673 9.29558 69.1207 9.2017 68.9596 9.13935C68.8045 9.0679 68.6363 9.02839 68.4652 9.02322H65.0049C65.3472 9.05511 65.6651 9.21223 65.896 9.46366C66.1268 9.71509 66.254 10.0427 66.2525 10.3819V21.5768C66.25 21.7512 66.2831 21.9244 66.3498 22.086C66.4165 22.2476 66.5155 22.3943 66.6409 22.5174C66.893 22.7189 67.1883 22.8612 67.5043 22.9336C67.8203 23.006 68.1489 23.0067 68.4652 22.9355C68.6363 22.9303 68.8045 22.8908 68.9596 22.8193V22.8193ZM74.2089 4.85419C74.132 4.91958 74.0338 4.95555 73.9323 4.95555C73.8308 4.95555 73.7326 4.91958 73.6557 4.85419L73.5262 4.7729C73.4584 4.70004 73.4208 4.60472 73.4208 4.5058C73.4208 4.40688 73.4584 4.31156 73.5262 4.2387L76.1392 0.139349C76.1734 0.102 76.2151 0.0721443 76.2618 0.0517105C76.3084 0.0312767 76.3588 0.0207189 76.4099 0.0207189C76.4609 0.0207189 76.5113 0.0312767 76.558 0.0517105C76.6046 0.0721443 76.6464 0.102 76.6806 0.139349L76.9983 0.441285C77.0757 0.502932 77.1261 0.591476 77.1392 0.68869C77.1523 0.785903 77.1272 0.884387 77.069 0.963865L74.2089 4.85419Z" fill="var(--fill-0, white)"/>
<path id="Vector_12" d="M93.2759 8.32645V25.8039C93.2759 25.9979 93.1978 26.184 93.0588 26.3212C92.9197 26.4584 92.7311 26.5355 92.5344 26.5355H90.463C90.2663 26.5355 90.0777 26.4584 89.9386 26.3212C89.7996 26.184 89.7215 25.9979 89.7215 25.8039V9.73161C89.7215 9.53758 89.6433 9.35149 89.5043 9.21428C89.3652 9.07708 89.1766 9 88.9799 9H84.8252C85.1864 9.01499 85.5277 9.16717 85.7778 9.42473C86.0278 9.68229 86.1673 10.0253 86.167 10.3819V25.8039C86.167 25.9979 86.0888 26.184 85.9498 26.3212C85.8107 26.4584 85.6221 26.5355 85.4255 26.5355H83.354C83.1573 26.5355 82.9687 26.4584 82.8296 26.3212C82.6906 26.184 82.6125 25.9979 82.6125 25.8039V9.73161C82.6125 9.53758 82.5343 9.35149 82.3953 9.21428C82.2562 9.07708 82.0676 9 81.871 9H77.6809C78.039 9.02064 78.3757 9.17494 78.6227 9.43159C78.8697 9.68825 79.0085 10.028 79.0109 10.3819V25.8039C79.0109 25.9979 78.9328 26.184 78.7937 26.3212C78.6547 26.4584 78.4661 26.5355 78.2694 26.5355H76.245C76.0483 26.5355 75.8597 26.4584 75.7207 26.3212C75.5816 26.184 75.5035 25.9979 75.5035 25.8039V5.4929H90.5336C91.2726 5.52581 91.9702 5.83881 92.4811 6.36667C92.992 6.89454 93.2767 7.59657 93.2759 8.32645V8.32645Z" fill="var(--fill-0, white)"/>
<path id="Vector_13" d="M60.4616 49.8426C60.4627 50.5686 60.1812 51.2674 59.6753 51.7947C59.1694 52.3219 58.4776 52.6375 57.7428 52.6761H49.8099V32.3652C49.8084 32.2687 49.8264 32.1728 49.8631 32.0833C49.8998 31.9939 49.9544 31.9126 50.0236 31.8443C50.0928 31.7761 50.1751 31.7223 50.2658 31.686C50.3565 31.6498 50.4536 31.632 50.5514 31.6335H52.6112C52.709 31.632 52.8061 31.6498 52.8968 31.686C52.9875 31.7223 53.0699 31.7761 53.139 31.8443C53.2082 31.9126 53.2628 31.9939 53.2995 32.0833C53.3362 32.1728 53.3543 32.2687 53.3527 32.3652V49.169H56.1657C56.2635 49.1706 56.3606 49.1528 56.4513 49.1165C56.542 49.0803 56.6243 49.0265 56.6935 48.9582C56.7627 48.89 56.8173 48.8087 56.854 48.7192C56.8907 48.6298 56.9087 48.5339 56.9072 48.4374V32.3652C56.9071 32.2681 56.9267 32.172 56.9647 32.0825C57.0027 31.9929 57.0584 31.9118 57.1285 31.8437C57.1986 31.7756 57.2817 31.7219 57.373 31.6859C57.4644 31.6498 57.5621 31.632 57.6604 31.6335H59.7201C59.818 31.632 59.9151 31.6498 60.0058 31.686C60.0965 31.7223 60.1788 31.7761 60.248 31.8443C60.3172 31.9126 60.3717 31.9939 60.4084 32.0833C60.4451 32.1728 60.4632 32.2687 60.4616 32.3652V49.8426Z" fill="var(--fill-0, white)"/>
<path id="Vector_14" d="M62.8862 32.4C62.8846 32.3025 62.903 32.2057 62.9404 32.1154C62.9779 32.0251 63.0335 31.9433 63.1039 31.8749C63.1744 31.8065 63.2582 31.7529 63.3502 31.7174C63.4423 31.6819 63.5407 31.6652 63.6395 31.6684H65.6992C65.797 31.6668 65.8942 31.6847 65.9848 31.7209C66.0755 31.7571 66.1579 31.8109 66.2271 31.8792C66.2962 31.9474 66.3508 32.0287 66.3875 32.1182C66.4242 32.2077 66.4423 32.3035 66.4407 32.4V48.4606C66.4391 48.5582 66.4575 48.655 66.4949 48.7452C66.5324 48.8355 66.588 48.9173 66.6584 48.9858C66.7289 49.0542 66.8127 49.1077 66.9047 49.1432C66.9968 49.1787 67.0952 49.1954 67.194 49.1923H69.9952V32.4C69.9936 32.3025 70.012 32.2057 70.0494 32.1154C70.0868 32.0251 70.1425 31.9433 70.2129 31.8749C70.2833 31.8065 70.3671 31.7529 70.4592 31.7174C70.5513 31.6819 70.6497 31.6652 70.7485 31.6684H72.8082C72.906 31.6668 73.0031 31.6847 73.0938 31.7209C73.1845 31.7571 73.2669 31.8109 73.336 31.8792C73.4052 31.9474 73.4598 32.0287 73.4965 32.1182C73.5332 32.2077 73.5513 32.3035 73.5497 32.4V52.6994H65.6168C64.891 52.667 64.2049 52.3634 63.6977 51.8501C63.1906 51.3367 62.9004 50.6522 62.8862 49.9355V32.4ZM64.3928 30.2981C64.9695 29.8568 65.8051 29.009 66.1935 29.009C67.1704 29.009 69.0065 30.1703 70.5248 30.1703C71.367 29.9784 72.1352 29.551 72.7376 28.9394C73.1377 28.6026 72.5022 27.7084 72.1255 27.9871C71.7489 28.2658 71.2899 29.1484 70.4071 29.2529C68.9712 29.3342 67.3117 28.0336 66.0288 28.0916C65.5933 28.0916 64.5811 29.1948 63.8631 29.729C63.4865 29.9729 64.0161 30.5768 64.3928 30.2981Z" fill="var(--fill-0, white)"/>
<path id="Vector_15" d="M85.7904 37.9161V35.8723C85.7904 35.7752 85.7709 35.6791 85.7329 35.5896C85.6949 35.5 85.6392 35.4189 85.5691 35.3508C85.499 35.2827 85.4158 35.229 85.3245 35.193C85.2332 35.1569 85.1355 35.1391 85.0371 35.1406H80.8942C81.2553 35.1556 81.5966 35.3078 81.8467 35.5654C82.0968 35.8229 82.2362 36.1659 82.2359 36.5226V48.4374C82.2343 48.5339 82.2524 48.6298 82.2891 48.7192C82.3258 48.8087 82.3804 48.89 82.4496 48.9582C82.5187 49.0265 82.6011 49.0803 82.6918 49.1165C82.7825 49.1527 82.8796 49.1706 82.9774 49.169H85.0371C85.1355 49.1706 85.2332 49.1528 85.3245 49.1167C85.4158 49.0806 85.499 49.027 85.5691 48.9589C85.6392 48.8908 85.6949 48.8096 85.7329 48.7201C85.7709 48.6306 85.7904 48.5345 85.7904 48.4374V46.4516C85.7904 46.3546 85.7709 46.2585 85.7329 46.1689C85.6949 46.0794 85.6392 45.9982 85.5691 45.9301C85.499 45.862 85.4158 45.8084 85.3245 45.7723C85.2332 45.7362 85.1355 45.7185 85.0371 45.72H84.3545C84.1578 45.72 83.9692 45.6429 83.8302 45.5057C83.6911 45.3685 83.613 45.1824 83.613 44.9884V42.8865C83.613 42.6924 83.6911 42.5063 83.8302 42.3691C83.9692 42.2319 84.1578 42.1548 84.3545 42.1548H88.5916C88.69 42.1533 88.7877 42.1711 88.879 42.2072C88.9703 42.2432 89.0535 42.2969 89.1236 42.365C89.1937 42.4331 89.2494 42.5142 89.2874 42.6038C89.3254 42.6933 89.3449 42.7894 89.3449 42.8865V51.2942C89.3452 51.6509 89.2058 51.9938 88.9557 52.2514C88.7056 52.509 88.3643 52.6611 88.0031 52.6761H79.4229C79.3251 52.6777 79.228 52.6598 79.1373 52.6236C79.0466 52.5874 78.9642 52.5336 78.8951 52.4653C78.8259 52.3971 78.7713 52.3158 78.7346 52.2263C78.6979 52.1369 78.6798 52.041 78.6814 51.9445V32.3652C78.6798 32.2687 78.6979 32.1728 78.7346 32.0833C78.7713 31.9939 78.8259 31.9126 78.8951 31.8443C78.9642 31.7761 79.0466 31.7223 79.1373 31.686C79.228 31.6498 79.3251 31.632 79.4229 31.6335H88.0031C88.3643 31.6485 88.7056 31.8007 88.9557 32.0583C89.2058 32.3158 89.3452 32.6588 89.3449 33.0155V37.9161C89.3449 38.0132 89.3254 38.1093 89.2874 38.1988C89.2494 38.2883 89.1937 38.3695 89.1236 38.4376C89.0535 38.5057 88.9703 38.5593 88.879 38.5954C88.7877 38.6315 88.69 38.6493 88.5916 38.6477H86.5319C86.4341 38.6493 86.337 38.6315 86.2463 38.5952C86.1556 38.559 86.0732 38.5052 86.004 38.437C85.9349 38.3687 85.8803 38.2874 85.8436 38.198C85.8069 38.1085 85.7888 38.0126 85.7904 37.9161V37.9161Z" fill="var(--fill-0, white)"/>
<path id="Vector_16" d="M95.3357 51.9561C95.3357 52.1502 95.2575 52.3363 95.1185 52.4735C94.9794 52.6107 94.7908 52.6877 94.5942 52.6877H92.4638C92.2672 52.6877 92.0786 52.6107 91.9395 52.4735C91.8004 52.3363 91.7223 52.1502 91.7223 51.9561V32.3768C91.7223 32.1827 91.8004 31.9966 91.9395 31.8594C92.0786 31.7222 92.2672 31.6452 92.4638 31.6452H94.5353C94.732 31.6452 94.9206 31.7222 95.0596 31.8594C95.1987 31.9966 95.2768 32.1827 95.2768 32.3768L95.3357 51.9561Z" fill="var(--fill-0, white)"/>
<path id="Vector_17" d="M106.67 31.6219C107.03 31.637 107.37 31.7896 107.618 32.0474C107.867 32.3053 108.003 32.6483 108 33.0039V51.8632C108.008 51.9646 107.995 52.0666 107.961 52.1628C107.928 52.259 107.875 52.3474 107.805 52.4225C107.736 52.4976 107.651 52.5578 107.557 52.5995C107.463 52.6411 107.362 52.6632 107.258 52.6645H105.211C105.111 52.6661 105.011 52.648 104.919 52.6113C104.826 52.5747 104.741 52.5202 104.67 52.451C104.599 52.3818 104.543 52.2994 104.504 52.2084C104.465 52.1175 104.445 52.0199 104.446 51.9213V46.3703C104.447 46.2743 104.429 46.179 104.392 46.0902C104.355 46.0013 104.301 45.9208 104.231 45.8534C104.162 45.7861 104.079 45.7334 103.989 45.6985C103.898 45.6635 103.801 45.6472 103.704 45.6503H100.891V51.9213C100.891 52.1184 100.812 52.3074 100.67 52.4468C100.529 52.5862 100.338 52.6645 100.138 52.6645H98.0898C97.9862 52.6631 97.884 52.641 97.7894 52.5995C97.6948 52.558 97.6096 52.498 97.5392 52.4231C97.4688 52.3481 97.4145 52.2599 97.3797 52.1637C97.3448 52.0674 97.3301 51.9652 97.3365 51.8632V33.0039C97.3389 32.65 97.4777 32.3102 97.7247 32.0535C97.9717 31.7969 98.3084 31.6426 98.6665 31.6219H106.67ZM104.446 35.8723C104.446 35.7767 104.426 35.6821 104.389 35.594C104.351 35.5059 104.297 35.426 104.228 35.359C104.159 35.292 104.077 35.2392 103.987 35.2037C103.897 35.1682 103.801 35.1507 103.704 35.1523H99.561C99.917 35.1671 100.254 35.3165 100.501 35.5694C100.749 35.8223 100.888 36.1594 100.891 36.511V41.3884C100.891 41.4854 100.911 41.5815 100.949 41.6711C100.987 41.7606 101.042 41.8418 101.112 41.9099C101.182 41.978 101.266 42.0316 101.357 42.0677C101.448 42.1038 101.546 42.1215 101.644 42.12H103.704C103.801 42.1232 103.898 42.1068 103.989 42.0719C104.079 42.037 104.162 41.9842 104.231 41.9169C104.301 41.8496 104.355 41.769 104.392 41.6802C104.429 41.5913 104.447 41.496 104.446 41.4V35.8723Z" fill="var(--fill-0, white)"/>
<path id="Vector_18" d="M51.905 62.0361H51.1046V58.7497H49.8099V58.0645H53.1879V58.8077H51.905V62.0361Z" fill="var(--fill-0, white)"/>
<path id="Vector_19" d="M56.3304 60.3871H54.5532V62.0594H53.7528V58.0645H54.5532V59.6903H56.3304V58.0645H57.1308V62.0942H56.3304V60.3871Z" fill="var(--fill-0, white)"/>
<path id="Vector_20" d="M58.8492 61.1187L58.5078 62.0361H57.6722L59.2258 58.0645H60.1556L61.7092 62.0942H60.85L60.5087 61.1768L58.8492 61.1187ZM60.238 60.3871L59.6731 58.8774L59.1081 60.3871H60.238Z" fill="var(--fill-0, white)"/>
<path id="Vector_21" d="M63.0392 59.2258V62.0826H62.2389V58.0645H63.2275L64.9342 60.7355V58.0645H65.7228V62.0942H64.8871L63.0392 59.2258Z" fill="var(--fill-0, white)"/>
<path id="Vector_22" d="M69.2419 60.3871H67.4646V62.0594H66.6643V58.0646H67.4646V59.6904H69.2419V58.0646H70.0422V62.0942H69.2419V60.3871Z" fill="var(--fill-0, white)"/>
<path id="Vector_23" d="M74.9855 60.3871H73.1965V62.0594H72.4079V58.0646H73.1965V59.6904H74.9855V58.0646H75.7859V62.0942H74.9855V60.3871Z" fill="var(--fill-0, white)"/>
<path id="Vector_24" d="M77.4926 61.1187L77.1513 62.0361H76.3156L77.881 58.0645H78.8579L80.4233 62.0942H79.5523L79.211 61.1768L77.4926 61.1187ZM78.8579 60.3871L78.2929 58.8658L77.7633 60.3871H78.8579Z" fill="var(--fill-0, white)"/>
<path id="Vector_25" d="M80.8942 58.0646H81.6945V62.0942H80.8942V58.0646Z" fill="var(--fill-0, white)"/>
<path id="Vector_26" d="M83.813 60.0271C83.8033 59.7505 83.851 59.4748 83.9531 59.217C84.0553 58.9592 84.2097 58.7247 84.407 58.5278C84.6042 58.331 84.8402 58.1761 85.1003 58.0724C85.3605 57.9688 85.6393 57.9187 85.9198 57.9252C86.3327 57.8976 86.7426 58.0121 87.0795 58.2493C87.4165 58.4865 87.6597 58.8316 87.7676 59.2258L87.0144 59.4581C86.9576 59.2014 86.805 58.9753 86.5869 58.8247C86.3688 58.674 86.1012 58.6099 85.8374 58.6452C85.4784 58.6452 85.1341 58.7859 84.8803 59.0363C84.6265 59.2868 84.4839 59.6265 84.4839 59.9806C84.4839 60.3348 84.6265 60.6745 84.8803 60.925C85.1341 61.1754 85.4784 61.3161 85.8374 61.3161C86.0985 61.3271 86.3559 61.2521 86.569 61.1028C86.7821 60.9535 86.9388 60.7385 87.0144 60.4916L87.7676 60.7239C87.6645 61.1289 87.4261 61.4878 87.0908 61.7428C86.7556 61.9977 86.343 62.1338 85.9198 62.129C85.6389 62.1372 85.3592 62.0883 85.0983 61.9853C84.8374 61.8822 84.6007 61.7273 84.4031 61.5301C84.2055 61.333 84.0511 61.0978 83.9496 60.8392C83.8481 60.5806 83.8016 60.3042 83.813 60.0271V60.0271Z" fill="var(--fill-0, white)"/>
<path id="Vector_27" d="M90.2864 57.9251C90.7087 57.9205 91.1229 58.0398 91.4763 58.268C91.8297 58.4961 92.1064 58.8228 92.2713 59.2064C92.4361 59.5901 92.4817 60.0134 92.4022 60.4227C92.3226 60.8319 92.1216 61.2086 91.8247 61.5049C91.5277 61.8012 91.1481 62.0037 90.7343 62.0867C90.3204 62.1697 89.8909 62.1295 89.5002 61.9711C89.1096 61.8127 88.7755 61.5433 88.5403 61.1972C88.3052 60.851 88.1796 60.4437 88.1796 60.027C88.1699 59.7504 88.2176 59.4747 88.3197 59.2169C88.4219 58.9591 88.5763 58.7246 88.7736 58.5278C88.9708 58.3309 89.2068 58.176 89.4669 58.0723C89.7271 57.9687 90.0059 57.9186 90.2864 57.9251V57.9251ZM90.2864 61.4089C90.5593 61.4252 90.8309 61.3603 91.066 61.2225C91.3011 61.0847 91.4889 60.8805 91.6049 60.6362C91.721 60.3919 91.7601 60.1189 91.7171 59.8524C91.6741 59.586 91.551 59.3385 91.3637 59.1418C91.1765 58.9452 90.9337 58.8086 90.6669 58.7497C90.4001 58.6908 90.1215 58.7123 89.8671 58.8114C89.6128 58.9106 89.3945 59.0827 89.2406 59.3057C89.0866 59.5286 89.004 59.7921 89.0035 60.0619C88.9954 60.2318 89.0228 60.4016 89.0839 60.5607C89.1451 60.7198 89.2387 60.8648 89.359 60.9868C89.4792 61.1087 89.6236 61.205 89.7831 61.2696C89.9427 61.3343 90.114 61.3659 90.2864 61.3625V61.4089Z" fill="var(--fill-0, white)"/>
<path id="Vector_28" d="M93.2995 61.0491C93.4052 61.0468 93.5092 61.0758 93.5981 61.1323C93.687 61.1889 93.7566 61.2704 93.7982 61.3663C93.8397 61.4622 93.8512 61.5683 93.8311 61.6707C93.8111 61.7732 93.7604 61.8673 93.6856 61.9411C93.6109 62.0149 93.5154 62.0649 93.4116 62.0847C93.3078 62.1045 93.2003 62.0931 93.1031 62.0522C93.0058 62.0112 92.9232 61.9424 92.8659 61.8547C92.8087 61.767 92.7793 61.6644 92.7816 61.5601C92.7846 61.4255 92.8401 61.2972 92.9366 61.2021C93.0331 61.1069 93.1631 61.0521 93.2995 61.0491V61.0491Z" fill="var(--fill-0, white)"/>
<path id="Vector_29" d="M95.0767 61.1071C95.1593 61.1081 95.2408 61.1263 95.3158 61.1605C95.3908 61.1946 95.4577 61.244 95.5121 61.3053C95.5665 61.3667 95.6072 61.4386 95.6316 61.5165C95.6559 61.5944 95.6634 61.6765 95.6534 61.7574C95.677 62.0546 95.5839 62.3494 95.3933 62.5807C95.2027 62.812 94.9292 62.9622 94.6295 63V62.64C94.7751 62.607 94.9067 62.5299 95.0059 62.4196C95.1051 62.3093 95.1669 62.1712 95.1827 62.0245C95.1322 62.0352 95.0801 62.0352 95.0296 62.0245C94.9663 62.0262 94.9034 62.0149 94.8447 61.9915C94.786 61.968 94.7329 61.9328 94.6887 61.888C94.6445 61.8433 94.6101 61.7901 94.5878 61.7316C94.5654 61.6732 94.5556 61.6108 94.5588 61.5484C94.5708 61.4231 94.6314 61.3073 94.7279 61.225C94.8244 61.1428 94.9494 61.1005 95.0767 61.1071Z" fill="var(--fill-0, white)"/>
<path id="Vector_30" d="M97.8897 58.0645H98.6901V61.351H100.514V62.0942H97.8897V58.0645Z" fill="var(--fill-0, white)"/>
<path id="Vector_31" d="M102.398 62.0362H101.597V58.7497H100.303V58.0646H103.681V58.8078H102.398V62.0362Z" fill="var(--fill-0, white)"/>
<path id="Vector_32" d="M104.293 58.0646H105.764C106.279 58.1031 106.76 58.3322 107.111 58.7058C107.462 59.0794 107.657 59.57 107.657 60.0794C107.657 60.5888 107.462 61.0794 107.111 61.453C106.76 61.8266 106.279 62.0556 105.764 62.0942H104.293V58.0646ZM106.953 60.0852C106.971 59.9223 106.954 59.7575 106.903 59.6015C106.852 59.4455 106.768 59.3019 106.657 59.1801C106.546 59.0584 106.41 58.9612 106.258 58.895C106.106 58.8289 105.942 58.7952 105.776 58.7962H105.14V61.3162H105.776C105.942 61.3172 106.106 61.2835 106.258 61.2173C106.41 61.1511 106.546 61.0539 106.657 60.9322C106.768 60.8104 106.852 60.6668 106.903 60.5109C106.954 60.3549 106.971 60.19 106.953 60.0271V60.0852Z" fill="var(--fill-0, white)"/>
</g>
<defs>
<clipPath id="clip0_0_371">
<rect width="108" height="63" fill="white"/>
</clipPath>
</defs>
</svg>
