<svg preserveAspectRatio="none" width="100%" height="100%" overflow="visible" style="display: block;" viewBox="0 0 205 120" fill="none" xmlns="http://www.w3.org/2000/svg">
<g id="Frame" clip-path="url(#clip0_0_327)">
<path id="Vector" d="M61.4398 63.4344L43.9994 80.7022L48.865 85.5196L66.3054 68.2519L61.4398 63.4344Z" fill="var(--fill-0, white)"/>
<path id="Vector_2" d="M31.4336 80.7157L50.2893 99.3848L42.5817 107.016L34.8741 99.3848L41.1519 93.147L36.2816 88.347L25.1335 99.3848L42.5817 116.638L60.0076 99.3848L36.2816 75.8936L31.4336 80.7157Z" fill="var(--fill-0, white)"/>
<path id="Vector_3" d="M61.5268 51.0742L56.6565 55.8963L75.4228 74.477L67.7152 82.1083L61.4375 75.8926L56.5671 80.7148L67.7152 91.7525L85.1635 74.477L61.5268 51.0742Z" fill="var(--fill-0, white)"/>
<path id="Vector_4" d="M28.5963 68.2615L9.74063 49.5923L17.4259 41.961L23.6367 48.1103L28.507 43.2882L17.4259 32.3389L0 49.5923L23.726 73.0836L28.5963 68.2615Z" fill="var(--fill-0, white)"/>
<path id="Vector_5" d="M36.2934 38.5584L18.7741 55.9043L23.6397 60.7217L41.159 43.3758L36.2934 38.5584Z" fill="var(--fill-0, white)"/>
<path id="Vector_6" d="M53.8192 43.4648L34.8741 24.7072L42.5817 17.0759L50.2893 24.7072L43.9445 30.9671L48.8148 35.7892L60.0076 24.7072L42.5817 7.43164L25.1335 24.7072L48.9489 48.2869L53.8192 43.4648Z" fill="var(--fill-0, white)"/>
<path id="Vector_7" d="M36.2816 63.4395L17.4259 82.1086L9.74063 74.4772L16.0184 68.2616L11.1481 63.4395L0 74.4772L17.4259 91.7528L41.1519 68.2616L36.2816 63.4395Z" fill="var(--fill-0, white)"/>
<path id="Vector_8" d="M49.0384 60.4528L67.693 41.9828L75.3336 49.6805L69.4356 55.5201L74.3059 60.3422L85.0072 49.7247L67.7377 32.3164L44.1904 55.6307L49.0384 60.4528Z" fill="var(--fill-0, white)"/>
<path id="Vector_9" d="M36.3866 51.0879L31.521 55.9054L48.8666 73.0793L53.7322 68.2618L36.3866 51.0879Z" fill="var(--fill-0, white)"/>
<path id="Vector_10" d="M107.862 22.4072V18.5141C107.862 18.1445 107.714 17.7901 107.45 17.5287C107.186 17.2674 106.828 17.1206 106.454 17.1206H98.568C99.2555 17.1436 99.9066 17.4318 100.382 17.9236C100.858 18.4154 101.121 19.0718 101.115 19.7528V42.4478C101.115 42.8174 101.263 43.1718 101.527 43.4332C101.791 43.6945 102.149 43.8413 102.522 43.8413H106.454C106.828 43.8413 107.186 43.6945 107.45 43.4332C107.714 43.1718 107.862 42.8174 107.862 42.4478V38.5547C107.862 38.1851 107.714 37.8306 107.45 37.5693C107.186 37.308 106.828 37.1611 106.454 37.1611H105.159C104.972 37.1641 104.786 37.1302 104.613 37.0615C104.44 36.9928 104.282 36.8906 104.149 36.7609C104.016 36.6312 103.91 36.4766 103.838 36.306C103.766 36.1355 103.729 35.9525 103.729 35.7676V31.8745C103.729 31.6896 103.766 31.5066 103.838 31.3361C103.91 31.1655 104.016 31.0109 104.149 30.8812C104.282 30.7515 104.44 30.6493 104.613 30.5806C104.786 30.5119 104.972 30.478 105.159 30.4809H113.201C113.575 30.4809 113.933 30.6278 114.197 30.8891C114.461 31.1505 114.609 31.5049 114.609 31.8745V47.8892C114.609 48.5686 114.345 49.2219 113.87 49.7125C113.395 50.2031 112.747 50.493 112.062 50.5215H95.7754C95.4021 50.5215 95.0441 50.3747 94.7802 50.1133C94.5162 49.852 94.3679 49.4975 94.3679 49.128V11.8339C94.3679 11.4644 94.5162 11.1099 94.7802 10.8486C95.0441 10.5872 95.4021 10.4404 95.7754 10.4404H112.062C112.749 10.4635 113.4 10.7516 113.876 11.2434C114.352 11.7352 114.615 12.3916 114.609 13.0727V22.4072C114.609 22.7768 114.461 23.1313 114.197 23.3926C113.933 23.6539 113.575 23.8008 113.201 23.8008H109.269C108.896 23.8008 108.538 23.6539 108.274 23.3926C108.01 23.1313 107.862 22.7768 107.862 22.4072V22.4072Z" fill="var(--fill-0, white)"/>
<path id="Vector_11" d="M123.21 50.1895C122.234 49.9623 121.342 49.4688 120.635 48.765C119.928 48.0612 119.435 47.1753 119.211 46.2079C119.122 45.7934 119.077 45.3708 119.077 44.9471V15.9259C119.064 14.5492 119.589 13.2208 120.542 12.2189C121.496 11.217 122.804 10.6192 124.193 10.5507C127.467 10.3516 130.749 10.3516 134.023 10.5507C135.412 10.6244 136.719 11.2231 137.675 12.2232C138.631 13.2234 139.163 14.5487 139.161 15.9259V44.9471C139.164 46.3206 138.635 47.6428 137.683 48.6424C136.732 49.642 135.43 50.243 134.045 50.3222C130.772 50.5213 127.489 50.5213 124.215 50.3222C123.877 50.3022 123.541 50.2579 123.21 50.1895V50.1895ZM135.833 7.43184C136.145 7.54244 136.19 8.18392 135.833 8.42724L135.587 8.62632C135.319 8.84751 134.827 8.73691 134.559 8.73691L129.13 8.4936L123.813 8.84751C123.523 8.84751 123.054 8.84751 122.763 8.73691L122.54 8.53784C122.227 8.29452 122.294 7.65304 122.54 7.54244L128.594 5.5959C128.973 5.4814 129.377 5.4814 129.756 5.5959L135.833 7.43184ZM130.895 43.465C131.201 43.3463 131.479 43.1675 131.714 42.9394C131.948 42.7113 132.133 42.4386 132.258 42.1378C132.398 41.8084 132.474 41.4556 132.481 41.0982V19.7747C132.474 19.4173 132.398 19.0645 132.258 18.7351C132.133 18.4343 131.948 18.1616 131.714 17.9335C131.479 17.7055 131.201 17.5267 130.895 17.4079C130.601 17.2718 130.282 17.1965 129.957 17.1867H123.389C124.039 17.2474 124.642 17.5467 125.08 18.0256C125.518 18.5045 125.76 19.1285 125.757 19.7747V41.0982C125.752 41.4305 125.815 41.7604 125.942 42.0683C126.068 42.3761 126.256 42.6555 126.494 42.8899C126.973 43.2736 127.533 43.5447 128.133 43.6826C128.733 43.8206 129.357 43.8218 129.957 43.6862C130.282 43.6764 130.601 43.6011 130.895 43.465V43.465ZM140.859 9.24567C140.713 9.37022 140.527 9.43874 140.334 9.43874C140.142 9.43874 139.955 9.37022 139.809 9.24567L139.564 9.09083C139.435 8.95206 139.363 8.7705 139.363 8.58208C139.363 8.39365 139.435 8.21209 139.564 8.07332L144.523 0.265025C144.588 0.193883 144.667 0.137016 144.756 0.0980941C144.844 0.0591726 144.94 0.0390625 145.037 0.0390625C145.134 0.0390625 145.23 0.0591726 145.318 0.0980941C145.407 0.137016 145.486 0.193883 145.551 0.265025L146.154 0.84014C146.301 0.957563 146.397 1.12622 146.421 1.31139C146.446 1.49656 146.399 1.68414 146.288 1.83553L140.859 9.24567Z" fill="var(--fill-0, white)"/>
<path id="Vector_12" d="M177.052 15.8601V49.1504C177.052 49.52 176.903 49.8745 176.639 50.1358C176.375 50.3972 176.017 50.544 175.644 50.544H171.712C171.339 50.544 170.981 50.3972 170.717 50.1358C170.453 49.8745 170.305 49.52 170.305 49.1504V18.5366C170.305 18.167 170.156 17.8126 169.892 17.5512C169.629 17.2899 169.271 17.1431 168.897 17.1431H161.011C161.696 17.1716 162.344 17.4615 162.819 17.9521C163.294 18.4427 163.558 19.096 163.558 19.7753V49.1504C163.558 49.52 163.409 49.8745 163.145 50.1358C162.882 50.3972 162.524 50.544 162.15 50.544H158.218C157.845 50.544 157.487 50.3972 157.223 50.1358C156.959 49.8745 156.811 49.52 156.811 49.1504V18.5366C156.811 18.167 156.663 17.8126 156.399 17.5512C156.135 17.2899 155.777 17.1431 155.403 17.1431H147.45C148.13 17.1824 148.769 17.4763 149.238 17.9652C149.707 18.454 149.97 19.1012 149.974 19.7753V49.1504C149.974 49.52 149.826 49.8745 149.562 50.1358C149.298 50.3972 148.94 50.544 148.567 50.544H144.724C144.351 50.544 143.993 50.3972 143.729 50.1358C143.465 49.8745 143.317 49.52 143.317 49.1504V10.4629H171.846C173.249 10.5256 174.573 11.1218 175.543 12.1272C176.513 13.1327 177.053 14.4699 177.052 15.8601V15.8601Z" fill="var(--fill-0, white)"/>
<path id="Vector_13" d="M114.765 94.938C114.767 96.3209 114.233 97.6519 113.273 98.6562C112.312 99.6605 110.999 100.262 109.604 100.335H94.5466V61.6476C94.5436 61.4638 94.578 61.2813 94.6476 61.1108C94.7173 60.9404 94.8208 60.7856 94.9521 60.6556C95.0834 60.5256 95.2398 60.423 95.4119 60.3541C95.5841 60.2851 95.7684 60.2511 95.9541 60.2541H99.8638C100.049 60.2511 100.234 60.2851 100.406 60.3541C100.578 60.423 100.734 60.5256 100.866 60.6556C100.997 60.7856 101.101 60.9404 101.17 61.1108C101.24 61.2813 101.274 61.4638 101.271 61.6476V93.655H106.611C106.796 93.658 106.981 93.624 107.153 93.555C107.325 93.4861 107.481 93.3835 107.613 93.2535C107.744 93.1235 107.848 92.9687 107.917 92.7983C107.987 92.6278 108.021 92.4453 108.018 92.2615V61.6476C108.018 61.4628 108.055 61.2797 108.127 61.1092C108.2 60.9387 108.305 60.784 108.438 60.6543C108.571 60.5246 108.729 60.4225 108.903 60.3537C109.076 60.285 109.261 60.2512 109.448 60.2541H113.358C113.543 60.2511 113.728 60.2851 113.9 60.3541C114.072 60.423 114.228 60.5256 114.36 60.6556C114.491 60.7856 114.594 60.9404 114.664 61.1108C114.734 61.2813 114.768 61.4638 114.765 61.6476V94.938Z" fill="var(--fill-0, white)"/>
<path id="Vector_14" d="M119.367 61.7136C119.364 61.5279 119.399 61.3434 119.47 61.1715C119.541 60.9996 119.647 60.8437 119.781 60.7134C119.914 60.5831 120.073 60.481 120.248 60.4134C120.423 60.3458 120.61 60.314 120.797 60.32H124.707C124.893 60.3171 125.077 60.3511 125.249 60.42C125.421 60.489 125.578 60.5915 125.709 60.7215C125.84 60.8515 125.944 61.0064 126.013 61.1768C126.083 61.3472 126.117 61.5298 126.114 61.7136V92.3053C126.111 92.491 126.146 92.6755 126.217 92.8474C126.288 93.0193 126.394 93.1752 126.528 93.3055C126.661 93.4358 126.82 93.5379 126.995 93.6055C127.17 93.6731 127.357 93.7049 127.544 93.6988H132.861V61.7136C132.858 61.5279 132.893 61.3434 132.964 61.1715C133.035 60.9996 133.141 60.8437 133.275 60.7134C133.408 60.5831 133.567 60.481 133.742 60.4134C133.917 60.3458 134.104 60.314 134.291 60.32H138.201C138.386 60.3171 138.571 60.3511 138.743 60.42C138.915 60.489 139.071 60.5915 139.203 60.7215C139.334 60.8515 139.438 61.0064 139.507 61.1768C139.577 61.3472 139.611 61.5298 139.608 61.7136V100.379H124.55C123.173 100.317 121.87 99.7391 120.908 98.7613C119.945 97.7836 119.394 96.4797 119.367 95.1145V61.7136ZM122.227 57.7099C123.322 56.8693 124.908 55.2546 125.645 55.2546C127.499 55.2546 130.985 57.4666 133.867 57.4666C135.465 57.101 136.923 56.2869 138.067 55.1219C138.826 54.4804 137.62 52.7772 136.905 53.3081C136.19 53.8389 135.319 55.52 133.643 55.7191C130.918 55.874 127.768 53.3965 125.332 53.5071C124.506 53.5071 122.584 55.6085 121.222 56.626C120.507 57.0905 121.512 58.2408 122.227 57.7099Z" fill="var(--fill-0, white)"/>
<path id="Vector_15" d="M162.843 72.2209V68.3278C162.843 68.1429 162.806 67.9599 162.733 67.7894C162.661 67.6188 162.556 67.4642 162.423 67.3345C162.29 67.2048 162.132 67.1027 161.958 67.0339C161.785 66.9652 161.6 66.9313 161.413 66.9343H153.549C154.234 66.9628 154.882 67.2527 155.357 67.7433C155.832 68.2339 156.096 68.8872 156.096 69.5665V92.2615C156.093 92.4453 156.127 92.6278 156.197 92.7983C156.266 92.9687 156.37 93.1235 156.501 93.2535C156.633 93.3835 156.789 93.486 156.961 93.555C157.133 93.624 157.318 93.658 157.503 93.655H161.413C161.6 93.6579 161.785 93.6241 161.958 93.5554C162.132 93.4866 162.29 93.3845 162.423 93.2548C162.556 93.1251 162.661 92.9704 162.733 92.7999C162.806 92.6294 162.843 92.4463 162.843 92.2615V88.479C162.843 88.2941 162.806 88.1111 162.733 87.9405C162.661 87.77 162.556 87.6154 162.423 87.4857C162.29 87.356 162.132 87.2538 161.958 87.1851C161.785 87.1164 161.6 87.0825 161.413 87.0854H160.117C159.744 87.0854 159.386 86.9386 159.122 86.6773C158.858 86.4159 158.71 86.0615 158.71 85.6919V81.6882C158.71 81.3186 158.858 80.9641 159.122 80.7028C159.386 80.4415 159.744 80.2946 160.117 80.2946H168.16C168.347 80.2917 168.532 80.3256 168.705 80.3943C168.879 80.463 169.036 80.5652 169.17 80.6949C169.303 80.8246 169.408 80.9792 169.48 81.1497C169.553 81.3203 169.59 81.5033 169.59 81.6882V97.7029C169.59 98.3823 169.326 99.0356 168.851 99.5262C168.376 100.017 167.728 100.307 167.043 100.335H150.756C150.571 100.338 150.386 100.304 150.214 100.235C150.042 100.166 149.886 100.064 149.754 99.9337C149.623 99.8037 149.519 99.6489 149.45 99.4785C149.38 99.308 149.346 99.1255 149.349 98.9416V61.6476C149.346 61.4638 149.38 61.2813 149.45 61.1108C149.519 60.9404 149.623 60.7856 149.754 60.6556C149.886 60.5256 150.042 60.423 150.214 60.3541C150.386 60.2851 150.571 60.2511 150.756 60.2541H167.043C167.728 60.2826 168.376 60.5725 168.851 61.0631C169.326 61.5537 169.59 62.207 169.59 62.8863V72.2209C169.59 72.4058 169.553 72.5888 169.48 72.7594C169.408 72.9299 169.303 73.0845 169.17 73.2142C169.036 73.3439 168.879 73.4461 168.705 73.5148C168.532 73.5835 168.347 73.6174 168.16 73.6145H164.25C164.065 73.6174 163.88 73.5834 163.708 73.5145C163.536 73.4455 163.38 73.343 163.248 73.213C163.117 73.083 163.013 72.9281 162.944 72.7577C162.874 72.5873 162.84 72.4047 162.843 72.2209V72.2209Z" fill="var(--fill-0, white)"/>
<path id="Vector_16" d="M180.961 98.9639C180.961 99.3335 180.813 99.688 180.549 99.9493C180.285 100.211 179.927 100.357 179.554 100.357H175.51C175.137 100.357 174.779 100.211 174.515 99.9493C174.251 99.688 174.103 99.3335 174.103 98.9639V61.6699C174.103 61.3003 174.251 60.9459 174.515 60.6845C174.779 60.4232 175.137 60.2764 175.51 60.2764H179.442C179.815 60.2764 180.173 60.4232 180.437 60.6845C180.701 60.9459 180.849 61.3003 180.849 61.6699L180.961 98.9639Z" fill="var(--fill-0, white)"/>
<path id="Vector_17" d="M202.475 60.2324C203.159 60.2611 203.804 60.5517 204.276 61.0429C204.747 61.5341 205.006 62.1874 205 62.8647V98.7873C205.015 98.9804 204.99 99.1746 204.927 99.3578C204.863 99.5411 204.762 99.7094 204.63 99.8525C204.498 99.9956 204.338 100.11 204.16 100.19C203.981 100.269 203.788 100.311 203.592 100.314H199.705C199.516 100.316 199.327 100.282 199.151 100.212C198.975 100.142 198.815 100.039 198.68 99.9068C198.545 99.775 198.437 99.618 198.364 99.4448C198.291 99.2716 198.253 99.0856 198.253 98.8979V88.3246C198.256 88.1418 198.222 87.9602 198.152 87.7909C198.082 87.6217 197.978 87.4683 197.846 87.34C197.715 87.2118 197.558 87.1113 197.386 87.0448C197.214 86.9783 197.03 86.9471 196.846 86.9532H191.506V98.8979C191.506 99.2733 191.355 99.6334 191.087 99.8989C190.819 100.164 190.455 100.314 190.076 100.314H186.189C185.992 100.311 185.798 100.269 185.619 100.19C185.439 100.111 185.278 99.9963 185.144 99.8536C185.01 99.7109 184.907 99.5428 184.841 99.3595C184.775 99.1762 184.747 98.9815 184.759 98.7873V62.8647C184.764 62.1905 185.027 61.5434 185.496 61.0545C185.965 60.5656 186.604 60.2717 187.284 60.2324H202.475ZM198.253 68.3283C198.253 68.1463 198.216 67.9661 198.145 67.7983C198.074 67.6304 197.97 67.4783 197.839 67.3506C197.708 67.223 197.553 67.1224 197.382 67.0548C197.212 66.9872 197.029 66.9539 196.846 66.9568H188.982C189.657 66.9852 190.296 67.2697 190.766 67.7514C191.236 68.2331 191.501 68.8752 191.506 69.5449V78.8352C191.506 79.0201 191.543 79.2031 191.615 79.3736C191.687 79.5442 191.793 79.6988 191.926 79.8285C192.059 79.9582 192.217 80.0604 192.39 80.1291C192.564 80.1978 192.749 80.2317 192.936 80.2287H196.846C197.03 80.2348 197.214 80.2036 197.386 80.1371C197.558 80.0706 197.715 79.9701 197.846 79.8419C197.978 79.7136 198.082 79.5602 198.152 79.3909C198.222 79.2217 198.256 79.0401 198.253 78.8573V68.3283Z" fill="var(--fill-0, white)"/>
<path id="Vector_18" d="M98.5233 118.164H97.0041V111.904H94.5466V110.599H100.958V112.014H98.5233V118.164Z" fill="var(--fill-0, white)"/>
<path id="Vector_19" d="M106.923 115.023H103.55V118.208H102.031V110.599H103.55V113.695H106.923V110.599H108.443V118.274H106.923V115.023Z" fill="var(--fill-0, white)"/>
<path id="Vector_20" d="M111.704 116.416L111.056 118.164H109.47L112.419 110.599H114.184L117.133 118.274H115.502L114.854 116.527L111.704 116.416ZM114.341 115.023L113.268 112.147L112.196 115.023H114.341Z" fill="var(--fill-0, white)"/>
<path id="Vector_21" d="M119.658 112.811V118.252H118.139V110.599H120.015L123.255 115.686V110.599H124.752V118.274H123.165L119.658 112.811Z" fill="var(--fill-0, white)"/>
<path id="Vector_22" d="M131.431 115.023H128.058V118.208H126.539V110.599H128.058V113.695H131.431V110.599H132.951V118.274H131.431V115.023Z" fill="var(--fill-0, white)"/>
<path id="Vector_23" d="M142.334 115.023H138.938V118.208H137.441V110.599H138.938V113.695H142.334V110.599H143.853V118.274H142.334V115.023Z" fill="var(--fill-0, white)"/>
<path id="Vector_24" d="M147.092 116.416L146.445 118.164H144.858L147.83 110.599H149.684L152.655 118.274H151.002L150.354 116.527L147.092 116.416ZM149.684 115.023L148.612 112.125L147.606 115.023H149.684Z" fill="var(--fill-0, white)"/>
<path id="Vector_25" d="M153.549 110.599H155.068V118.274H153.549V110.599Z" fill="var(--fill-0, white)"/>
<path id="Vector_26" d="M159.089 114.338C159.071 113.811 159.162 113.285 159.355 112.794C159.549 112.303 159.842 111.857 160.217 111.482C160.591 111.107 161.039 110.812 161.533 110.614C162.027 110.417 162.556 110.321 163.088 110.334C163.872 110.281 164.65 110.5 165.29 110.951C165.929 111.403 166.391 112.06 166.596 112.811L165.166 113.254C165.058 112.765 164.769 112.334 164.355 112.047C163.941 111.76 163.433 111.638 162.932 111.705C162.251 111.705 161.597 111.973 161.115 112.45C160.634 112.927 160.363 113.574 160.363 114.249C160.363 114.924 160.634 115.571 161.115 116.048C161.597 116.525 162.251 116.793 162.932 116.793C163.428 116.814 163.916 116.671 164.321 116.386C164.725 116.102 165.023 115.693 165.166 115.222L166.596 115.665C166.4 116.436 165.948 117.12 165.311 117.606C164.675 118.091 163.892 118.35 163.088 118.341C162.555 118.357 162.024 118.264 161.529 118.067C161.034 117.871 160.585 117.576 160.21 117.2C159.834 116.825 159.541 116.377 159.349 115.884C159.156 115.392 159.068 114.865 159.089 114.338V114.338Z" fill="var(--fill-0, white)"/>
<path id="Vector_27" d="M171.377 110.334C172.178 110.325 172.965 110.553 173.635 110.987C174.306 111.422 174.832 112.044 175.144 112.775C175.457 113.505 175.544 114.312 175.393 115.091C175.242 115.871 174.86 116.588 174.297 117.153C173.733 117.717 173.013 118.103 172.227 118.261C171.441 118.419 170.626 118.342 169.885 118.041C169.143 117.739 168.509 117.226 168.063 116.567C167.616 115.907 167.378 115.131 167.378 114.338C167.359 113.811 167.45 113.286 167.644 112.795C167.838 112.304 168.131 111.857 168.505 111.482C168.88 111.107 169.328 110.812 169.821 110.615C170.315 110.417 170.844 110.322 171.377 110.334V110.334ZM171.377 116.97C171.895 117.001 172.41 116.877 172.857 116.615C173.303 116.352 173.659 115.963 173.88 115.498C174.1 115.033 174.174 114.513 174.093 114.005C174.011 113.498 173.777 113.026 173.422 112.652C173.066 112.277 172.606 112.017 172.099 111.905C171.593 111.793 171.064 111.834 170.581 112.022C170.098 112.211 169.684 112.539 169.392 112.964C169.099 113.388 168.943 113.89 168.942 114.404C168.926 114.728 168.978 115.051 169.094 115.354C169.21 115.657 169.388 115.934 169.616 116.166C169.845 116.398 170.119 116.582 170.422 116.705C170.724 116.828 171.05 116.888 171.377 116.882V116.97Z" fill="var(--fill-0, white)"/>
<path id="Vector_28" d="M177.096 116.283C177.297 116.279 177.494 116.334 177.663 116.442C177.832 116.55 177.964 116.705 178.043 116.888C178.122 117.07 178.143 117.272 178.105 117.467C178.067 117.663 177.971 117.842 177.829 117.982C177.687 118.123 177.506 118.218 177.309 118.256C177.112 118.294 176.908 118.272 176.723 118.194C176.539 118.116 176.382 117.985 176.273 117.818C176.165 117.651 176.109 117.455 176.113 117.257C176.119 117 176.224 116.756 176.407 116.575C176.591 116.393 176.837 116.289 177.096 116.283V116.283Z" fill="var(--fill-0, white)"/>
<path id="Vector_29" d="M180.47 116.394C180.626 116.396 180.781 116.43 180.924 116.496C181.066 116.561 181.193 116.655 181.296 116.771C181.399 116.888 181.477 117.025 181.523 117.174C181.569 117.322 181.583 117.478 181.564 117.633C181.609 118.199 181.432 118.76 181.071 119.201C180.709 119.641 180.19 119.927 179.621 119.999V119.314C179.897 119.251 180.147 119.104 180.335 118.894C180.523 118.684 180.641 118.421 180.671 118.141C180.575 118.162 180.476 118.162 180.38 118.141C180.26 118.145 180.141 118.123 180.029 118.078C179.918 118.034 179.817 117.967 179.733 117.881C179.649 117.796 179.584 117.695 179.542 117.583C179.499 117.472 179.48 117.353 179.487 117.234C179.509 116.996 179.624 116.775 179.808 116.619C179.991 116.462 180.228 116.381 180.47 116.394Z" fill="var(--fill-0, white)"/>
<path id="Vector_30" d="M185.809 110.599H187.328V116.859H190.791V118.274H185.809V110.599Z" fill="var(--fill-0, white)"/>
<path id="Vector_31" d="M194.366 118.164H192.847V111.904H190.389V110.599H196.801V112.014H194.366V118.164Z" fill="var(--fill-0, white)"/>
<path id="Vector_32" d="M197.963 110.599H200.755C201.732 110.672 202.645 111.108 203.312 111.82C203.978 112.532 204.348 113.466 204.348 114.436C204.348 115.407 203.978 116.341 203.312 117.053C202.645 117.764 201.732 118.201 200.755 118.274H197.963V110.599ZM203.012 114.447C203.046 114.137 203.014 113.823 202.918 113.526C202.821 113.229 202.662 112.955 202.451 112.724C202.24 112.492 201.982 112.307 201.693 112.181C201.405 112.054 201.093 111.99 200.778 111.992H199.571V116.792H200.778C201.093 116.794 201.405 116.73 201.693 116.604C201.982 116.478 202.24 116.293 202.451 116.061C202.662 115.829 202.821 115.555 202.918 115.258C203.014 114.961 203.046 114.647 203.012 114.337V114.447Z" fill="var(--fill-0, white)"/>
</g>
<defs>
<clipPath id="clip0_0_327">
<rect width="205" height="120" fill="white"/>
</clipPath>
</defs>
</svg>
